<?xml version="1.0" encoding="UTF-8" standalone="no"?>
<!-- Created with Inkscape (http://www.inkscape.org/) -->

<svg
   width="210mm"
   height="297mm"
   viewBox="0 0 210 297"
   version="1.1"
   id="svg1"
   xml:space="preserve"
   inkscape:version="1.3.2 (091e20ef0f, 2023-11-25, custom)"
   sodipodi:docname="estados.svg"
   xmlns:inkscape="http://www.inkscape.org/namespaces/inkscape"
   xmlns:sodipodi="http://sodipodi.sourceforge.net/DTD/sodipodi-0.dtd"
   xmlns="http://www.w3.org/2000/svg"
   xmlns:svg="http://www.w3.org/2000/svg"><sodipodi:namedview
     id="namedview1"
     pagecolor="#ffffff"
     bordercolor="#000000"
     borderopacity="0.25"
     inkscape:showpageshadow="2"
     inkscape:pageopacity="0.0"
     inkscape:pagecheckerboard="0"
     inkscape:deskcolor="#d1d1d1"
     inkscape:document-units="mm"
     inkscape:zoom="0.36480429"
     inkscape:cx="121.98321"
     inkscape:cy="442.70312"
     inkscape:window-width="1920"
     inkscape:window-height="1006"
     inkscape:window-x="0"
     inkscape:window-y="0"
     inkscape:window-maximized="1"
     inkscape:current-layer="layer1" /><defs
     id="defs1" /><g
     inkscape:label="Capa 1"
     inkscape:groupmode="layer"
     id="layer1"><path
       style="fill:#e93548;fill-opacity:1;stroke-width:0.502234"
       d="m 113.07071,223.21178 c -0.53127,-0.26297 -0.8479,-0.58289 -1.10735,-1.11886 -0.36195,-0.74767 -0.36336,-0.86648 -0.36336,-30.58165 0,-29.75907 0.001,-29.83288 0.36501,-30.58506 0.38547,-0.79628 1.44794,-1.484 2.29265,-1.484 0.84471,0 1.90718,0.68772 2.29265,1.484 0.35964,0.74292 0.36501,0.97192 0.36501,15.58094 v 14.82695 h 13.37687 13.37688 v 1.57041 c 0,0.86372 0.0814,1.99953 0.18085,2.52401 0.60345,3.18202 3.17334,5.7519 6.35536,6.35536 0.621,0.11777 9.87462,0.18085 26.53151,0.18085 h 25.57792 v 9.6888 c 0,9.42092 -0.0101,9.70966 -0.365,10.4428 -0.38548,0.79629 -1.44795,1.48401 -2.29266,1.48401 -0.84471,0 -1.90718,-0.68772 -2.29265,-1.48401 -0.33771,-0.69761 -0.36501,-1.07444 -0.36501,-5.0389 v -4.28489 h -40.04204 -40.04203 v 4.28489 c 0,3.96446 -0.0273,4.34129 -0.36501,5.0389 -0.265,0.54743 -0.57158,0.854 -1.119,1.11901 -0.94953,0.45966 -1.42626,0.45894 -2.3606,-0.004 z m 37.38438,-26.93093 c -0.53127,-0.26297 -0.8479,-0.5829 -1.10735,-1.11886 -0.34354,-0.70965 -0.36336,-1.0651 -0.36336,-6.51731 0,-3.18151 0.0811,-6.19421 0.18085,-6.72032 0.60346,-3.18202 3.17334,-5.75191 6.35536,-6.35536 1.30515,-0.24752 38.95276,-0.24752 40.2579,0 3.18203,0.60345 5.75192,3.17334 6.35537,6.35536 0.10355,0.54601 0.18085,3.89668 0.18085,7.83933 v 6.88572 l -25.55781,-1.4e-4 c -25.52303,-1.4e-4 -25.55882,-5e-4 -26.30181,-0.36842 z m -16.3344,-10.4537 c -4.02442,-0.79035 -6.92186,-4.93346 -6.25683,-8.94678 0.57596,-3.47577 3.19103,-6.09084 6.6668,-6.6668 5.12326,-0.84895 9.84662,3.87442 8.99767,8.99767 -0.74808,4.51451 -4.97426,7.48657 -9.40764,6.61591 z m 5.91625,-21.32173 c -1.30495,-0.5849 -1.90774,-1.84248 -1.51399,-3.15856 0.18318,-0.61225 0.82402,-1.35742 3.42834,-3.98648 l 3.20305,-3.23349 h -2.28129 c -2.79761,0 -3.56936,-0.27568 -4.15429,-1.484 -0.45864,-0.94743 -0.45864,-1.39988 0,-2.34731 0.265,-0.54742 0.57157,-0.85399 1.119,-1.119 0.71349,-0.3454 1.0606,-0.365 6.46201,-0.365 6.04903,0 6.37849,0.0394 7.23993,0.86544 0.61803,0.59264 0.86135,1.64092 0.5908,2.54522 -0.18318,0.61225 -0.82402,1.35743 -3.42834,3.98648 l -3.20305,3.23349 h 2.28129 c 1.94136,0 2.39365,0.0544 3.03529,0.365 0.79628,0.38547 1.48401,1.44794 1.48401,2.29265 0,0.84471 -0.68773,1.90718 -1.48401,2.29266 -0.71484,0.34604 -1.05246,0.36464 -6.50061,0.35807 -4.41916,-0.005 -5.86939,-0.062 -6.27814,-0.24517 z m 21.26125,-15.94595 c -1.30494,-0.58489 -1.90773,-1.84247 -1.51398,-3.15855 0.18318,-0.61225 0.82402,-1.35743 3.42834,-3.98649 l 3.20305,-3.23348 h -2.28129 c -2.79761,0 -3.56936,-0.27569 -4.1543,-1.48401 -0.45864,-0.94742 -0.45864,-1.39987 0,-2.3473 0.26501,-0.54743 0.57158,-0.854 1.11901,-1.119 0.7135,-0.3454 1.0606,-0.36501 6.462,-0.36501 6.04904,0 6.3785,0.0394 7.23993,0.86544 0.61803,0.59265 0.86136,1.64093 0.59081,2.54522 -0.18318,0.61225 -0.82402,1.35743 -3.42834,3.98649 l -3.20305,3.23348 h 2.28129 c 1.94136,0 2.39364,0.0544 3.03529,0.36501 0.79628,0.38547 1.48401,1.44794 1.48401,2.29265 0,0.84471 -0.68773,1.90718 -1.48401,2.29265 -0.71484,0.34605 -1.05246,0.36465 -6.50061,0.35807 -4.41916,-0.005 -5.8694,-0.062 -6.27815,-0.24517 z"
       id="path2"
       inkscape:export-filename="bussy.png"
       inkscape:export-xdpi="35.134102"
       inkscape:export-ydpi="35.134102" /><path
       style="fill:#ffcc00;stroke-width:0.502234"
       d="m 8.2412654,216.72102 c -0.531268,-0.26298 -0.847901,-0.5829 -1.107358,-1.11887 -0.346378,-0.71552 -0.363351,-1.05832 -0.363351,-7.33878 v -6.58821 H 52.127912 97.485264 v 6.58821 c 0,6.29016 -0.0165,6.62231 -0.365,7.3422 -0.38548,0.79628 -1.44795,1.48401 -2.29266,1.48401 -0.84471,0 -1.90718,-0.68773 -2.29265,-1.48401 -0.32753,-0.67659 -0.36501,-1.08478 -0.36501,-3.97583 V 208.4079 H 52.127912 12.085871 v 3.22184 c 0,2.89105 -0.03748,3.29924 -0.365004,3.97583 -0.265005,0.54743 -0.571575,0.854 -1.119002,1.119 -0.9495286,0.45966 -1.4262556,0.45895 -2.3605996,-0.004 z m -1.428786,-39.21759 c 0.04636,-18.73214 0.04907,-18.85964 0.411967,-19.34566 0.654695,-0.87681 1.274406,-1.21984 2.203768,-1.21984 0.9293376,0 1.5490296,0.343 2.2037656,1.2198 0.360013,0.48212 0.365993,0.67497 0.412999,13.31926 l 0.0477,12.83007 38.22257,0.0466 38.22257,0.0467 1.151654,0.39396 c 2.446981,0.83706 4.900991,2.78155 6.169411,4.88848 0.87829,1.45889 1.45764,3.34355 1.57596,5.12672 l 0.10287,1.5503 H 52.151763 6.7658124 Z M 17.97732,176.73748 c 0.15017,-3.55136 0.983519,-5.15062 3.353491,-6.43558 l 1.119924,-0.60722 h 6.644144 c 6.490571,0 6.663633,0.009 7.487321,0.39304 1.26391,0.58915 2.485419,1.82721 3.067419,3.10899 0.451097,0.99348 0.508929,1.34069 0.575003,3.45218 l 0.07346,2.3476 H 29.089941 17.881797 Z m 29.986927,-12.00803 c -3.704509,-0.81702 -7.507423,-2.98968 -10.050296,-5.74189 -2.505436,-2.71169 -4.459928,-6.63259 -4.973988,-9.97831 l -0.102086,-0.66441 2.513636,-2.8e-4 c 2.039479,-2.2e-4 2.629945,-0.0587 3.130223,-0.31006 1.896587,-0.95288 1.896587,-3.74176 0,-4.69464 -0.500278,-0.25135 -1.090744,-0.30984 -3.130223,-0.31006 l -2.513636,-2.8e-4 0.102086,-0.66441 c 0.212971,-1.38611 0.990197,-3.73519 1.743992,-5.27102 2.395598,-4.88097 6.810802,-8.59098 11.98972,-10.07471 0.807262,-0.23128 1.766736,-0.47452 2.132161,-0.54054 l 0.664417,-0.12003 2.76e-4,2.17845 c 2.16e-4,1.72036 0.06542,2.30811 0.31006,2.79504 0.952879,1.89658 3.741767,1.89658 4.694642,0 0.244643,-0.48693 0.309843,-1.07468 0.310059,-2.79504 l 2.76e-4,-2.17845 0.664416,0.12003 c 7.299461,1.31868 13.341492,6.74933 15.358552,13.80444 0.222881,0.77958 0.451177,1.7164 0.507322,2.08183 l 0.102089,0.66441 -2.070693,2.8e-4 c -1.617762,2.1e-4 -2.205563,0.068 -2.687281,0.31006 -1.896588,0.95288 -1.896588,3.74176 0,4.69464 0.481718,0.24203 1.069519,0.30985 2.687281,0.31006 l 2.070693,2.8e-4 -0.102089,0.66441 c -0.212968,1.38611 -0.990196,3.73518 -1.74399,5.27102 -2.618977,5.33609 -7.635696,9.24744 -13.422,10.46463 -0.665656,0.14003 -1.244939,0.25459 -1.287292,0.25459 -0.04234,0 -0.07713,-0.97669 -0.07728,-2.17042 -3.11e-4,-2.47488 -0.210738,-3.1303 -1.221871,-3.80578 -1.261689,-0.84286 -3.095668,-0.34894 -3.78283,1.01877 -0.244458,0.48656 -0.309844,1.0743 -0.31006,2.78701 -2.06e-4,1.62757 -0.05567,2.16597 -0.221747,2.15263 -0.121812,-0.01 -0.699848,-0.1233 -1.284535,-0.25225 z m 9.942927,-16.67222 c 0.941504,-0.44677 1.396413,-1.21886 1.396413,-2.37005 0,-1.80022 -1.05186,-2.65766 -3.26026,-2.65766 h -1.257761 v -1.24593 c 0,-1.93708 -0.609235,-2.95472 -1.993243,-3.32941 -1.283897,-0.34759 -2.78491,0.46553 -3.155283,1.70927 -0.118036,0.39637 -0.171308,1.79578 -0.136081,3.57478 0.05315,2.68449 0.09001,2.96846 0.450892,3.47439 0.70696,0.99109 1.230318,1.1237 4.452585,1.12818 2.31175,0.003 3.019031,-0.054 3.502738,-0.28357 z"
       id="path3"
       inkscape:export-filename="reserved.png"
       inkscape:export-xdpi="35.134102"
       inkscape:export-ydpi="35.134102" /><path
       style="fill:#15ac53;fill-opacity:1;stroke-width:0.502234"
       d="m 8.2412654,119.60371 c -0.531268,-0.26298 -0.847901,-0.5829 -1.107358,-1.11887 -0.346378,-0.71552 -0.363351,-1.05832 -0.363351,-7.33878 v -6.58821 H 52.127912 97.485264 v 6.58821 c 0,6.29016 -0.0165,6.62231 -0.365,7.3422 -0.38548,0.79628 -1.44795,1.48401 -2.29266,1.48401 -0.84471,0 -1.90718,-0.68773 -2.29265,-1.48401 -0.32753,-0.67659 -0.36501,-1.08478 -0.36501,-3.97584 v -3.22183 H 52.127912 12.085871 v 3.22183 c 0,2.89106 -0.03748,3.29925 -0.365004,3.97584 -0.265005,0.54742 -0.571575,0.854 -1.119002,1.119 -0.9495286,0.45966 -1.4262556,0.45894 -2.3605996,-0.004 z M 6.8124794,80.386119 c 0.04636,-18.732138 0.04907,-18.859641 0.411967,-19.345655 0.654695,-0.876821 1.274406,-1.219847 2.203768,-1.219847 0.9293376,0 1.5490296,0.343006 2.2037656,1.219802 0.360013,0.482116 0.365993,0.674969 0.412999,13.319263 l 0.0477,12.830062 38.22257,0.04666 38.22257,0.04666 1.151654,0.393958 c 2.446981,0.837064 4.900991,2.781555 6.169411,4.888479 0.87829,1.458891 1.45764,3.343556 1.57596,5.126719 l 0.10287,1.550302 H 52.151763 6.7658124 Z M 17.97732,79.620166 c 0.15017,-3.55136 0.983519,-5.150615 3.353491,-6.435582 l 1.119924,-0.607212 h 6.644144 c 6.490571,0 6.663633,0.0091 7.487321,0.393034 1.26391,0.589151 2.485419,1.827214 3.067419,3.108997 0.451097,0.99348 0.508929,1.34069 0.575003,3.452174 l 0.07346,2.3476 H 29.089941 17.881797 Z"
       id="path4"
       sodipodi:nodetypes="csscccssssscccsssccssssscccssscccssscsssscccs"
       inkscape:export-filename="free.png"
       inkscape:export-xdpi="35.134102"
       inkscape:export-ydpi="35.134102" /><path
       style="fill:#0066ff;stroke-width:0.502234"
       d="m 122.71519,113.86136 c -1.05465,-0.38734 -1.86179,-1.11186 -2.33559,-2.09653 -0.41341,-0.85914 -0.50163,-1.63752 -1.50912,-13.314885 -0.58852,-6.82132 -1.11796,-12.78112 -1.17652,-13.244 l -0.10648,-0.84159 h 4.0917 4.0917 v 5.29304 c 0,6.01182 0.0559,6.34345 1.27844,7.59046 1.26921,1.29456 1.23687,1.29067 10.73632,1.29067 6.08363,0 8.6097,-0.0596 9.13735,-0.21546 0.97321,-0.28755 2.44097,-1.75531 2.72852,-2.72851 0.14791,-0.50065 0.21546,-2.37528 0.21546,-5.97973 v -5.25047 h 4.07508 c 2.24129,0 4.07507,0.0313 4.07507,0.0696 0,0.0383 -0.51806,5.99688 -1.15125,13.24138 -1.10288,12.618405 -1.17046,13.211075 -1.60835,14.106085 -0.49507,1.01189 -1.28565,1.72187 -2.33388,2.09595 -0.99307,0.35439 -29.24069,0.33945 -30.20845,-0.016 z m 43.26907,-0.0547 c -0.29026,-0.23503 -0.43828,-0.60962 -0.54151,-1.37035 -0.0852,-0.62794 -0.44727,-1.68616 -0.90472,-2.64427 -0.74891,-1.56858 -0.76265,-1.63088 -0.76265,-3.45772 0,-1.8393 0.009,-1.87926 0.7973,-3.53063 0.69741,-1.46102 0.79729,-1.81779 0.79729,-2.847755 0,-1.02438 -0.10107,-1.39015 -0.77736,-2.81325 -0.8342,-1.7554 -1.08015,-3.20242 -0.82899,-4.8773 l 0.12206,-0.81395 h 3.78608 3.78609 l -0.16481,0.57466 c -0.22194,0.77386 -0.20677,2.54104 0.0293,3.41182 0.10567,0.38979 0.48135,1.26682 0.83484,1.94895 0.57146,1.10275 0.64272,1.38756 0.64272,2.56907 0,1.184205 -0.0704,1.463815 -0.64641,2.569075 -0.85534,1.64112 -1.08679,2.64697 -0.99076,4.30575 0.0655,1.13162 0.20724,1.64908 0.81133,2.96213 0.80122,1.7415 1.0314,2.74509 0.85063,3.70868 l -0.11792,0.62854 h -3.16153 c -2.79685,0 -3.20761,-0.0373 -3.56097,-0.32345 z m 9.6559,-1.33484 c -0.006,-1.59544 -0.0347,-1.71409 -0.78644,-3.23245 -0.59968,-1.21129 -0.79775,-1.83034 -0.85552,-2.67383 -0.0695,-1.01429 -0.0116,-1.23361 0.76239,-2.88936 0.72656,-1.5543 0.84964,-1.98535 0.92869,-3.25241 0.10563,-1.693115 -0.1921,-2.964485 -1.0503,-4.485145 -0.67486,-1.19578 -0.86117,-2.81496 -0.43992,-3.82315 l 0.27746,-0.66404 2.09087,-5e-5 2.09087,-4e-5 v 1.99329 1.99328 l 0.7973,1.67028 c 0.69741,1.46101 0.7973,1.81778 0.7973,2.84774 0,1.029965 -0.0999,1.386735 -0.7973,2.847755 -0.78828,1.65137 -0.7973,1.69133 -0.7973,3.53063 0,1.82776 0.0134,1.88812 0.76101,3.44437 0.81016,1.68629 1.03991,2.69382 0.8478,3.71786 l -0.11886,0.63356 -2.25098,-0.001 -2.25098,-10e-4 z m 7.44144,0 c -0.006,-1.59544 -0.0348,-1.71409 -0.78644,-3.23245 -0.59968,-1.21129 -0.79775,-1.83034 -0.85552,-2.67383 -0.0698,-1.01934 -0.0138,-1.22778 0.78644,-2.92342 0.86061,-1.8237 0.86161,-1.82798 0.86161,-3.692165 0,-1.85141 -0.006,-1.87903 -0.78644,-3.45495 -0.91401,-1.84632 -1.12681,-3.26408 -0.65824,-4.38552 l 0.27495,-0.65805 h 2.11048 2.11048 l -0.0867,1.65742 c -0.0977,1.86752 0.13916,2.8524 1.0927,4.54378 0.48137,0.85385 0.54866,1.13896 0.54361,2.3033 -0.005,1.178225 -0.079,1.469405 -0.65216,2.569075 -0.85534,1.64112 -1.08679,2.64697 -0.99076,4.30575 0.0655,1.13162 0.20724,1.64908 0.81133,2.96213 0.80121,1.7415 1.0314,2.74509 0.85062,3.70868 l -0.11791,0.62854 -2.25098,-0.001 -2.25098,-10e-4 z m 7.44181,0.0138 c -0.005,-1.57279 -0.0393,-1.71307 -0.79729,-3.30814 -0.69082,-1.45367 -0.79158,-1.81557 -0.79158,-2.84317 0,-1.02996 0.0999,-1.38673 0.7973,-2.84775 0.78827,-1.65136 0.79729,-1.69132 0.79729,-3.530635 0,-1.85101 -0.004,-1.86932 -0.84159,-3.64335 -0.92437,-1.95837 -1.07723,-3.06832 -0.58487,-4.24672 l 0.25673,-0.61443 h 3.66013 c 3.41986,0 3.65114,0.0203 3.52323,0.31006 -0.0753,0.17053 -0.17088,0.90803 -0.21242,1.63888 -0.0711,1.2509 -0.0387,1.39809 0.55157,2.50977 1.47939,2.78598 1.56067,4.929675 0.28658,7.558015 -0.57597,1.18817 -0.76615,1.8102 -0.83736,2.73874 -0.0858,1.11935 -0.0494,1.28294 0.53304,2.39484 1.25076,2.38763 1.53841,4.31518 0.7601,5.09348 -0.43096,0.43097 -0.46493,0.43488 -3.76501,0.43387 l -3.33013,-0.001 z M 129.0406,95.268775 c -0.35717,-0.35717 -0.43489,-0.61047 -0.43489,-1.41742 v -0.98253 h 9.21322 9.21321 v 0.98253 c 0,0.80695 -0.0777,1.06025 -0.43489,1.41742 l -0.43489,0.43489 h -8.34343 -8.34344 z m -0.43489,-6.6522 v -1.41741 h 9.21322 9.21321 v 1.41741 1.41742 h -9.21321 -9.21322 z m 34.45291,-0.43489 c -0.40987,-0.40986 -0.43489,-0.54886 -0.43489,-2.41563 0,-1.0894 0.097,-2.30891 0.21547,-2.71 0.28754,-0.97321 1.7553,-2.44097 2.72851,-2.72851 0.54697,-0.16161 4.41702,-0.21547 15.48245,-0.21547 11.06541,0 14.93546,0.0539 15.48244,0.21547 0.9732,0.28754 2.44097,1.7553 2.72851,2.72851 0.11851,0.40109 0.21547,1.6206 0.21547,2.71 0,1.86677 -0.025,2.00577 -0.43489,2.41563 l -0.43489,0.43489 h -17.55664 -17.55665 z m -34.45291,-10.90444 v -7.08709 h 9.21322 9.21321 v 7.08709 7.08708 h -9.21321 -9.21322 z m -11.33933,4.02061 c -0.86963,-0.2741 -2.35272,-1.80983 -2.61937,-2.71234 -0.2785,-0.9426 -0.2785,-4.50878 0,-5.45138 0.28754,-0.97321 1.7553,-2.44097 2.72851,-2.72852 0.47404,-0.14005 2.07073,-0.21546 4.56231,-0.21546 h 3.83305 v 5.66967 5.66967 l -3.9422,-0.0181 c -2.32751,-0.0107 -4.19618,-0.0981 -4.5623,-0.21355 z m 32.60059,-5.43803 v -5.66967 h 3.83305 c 4.5522,0 4.94458,0.0839 6.18347,1.32282 1.12084,1.12084 1.32282,1.78457 1.32282,4.34685 0,2.56228 -0.20198,3.226 -1.32282,4.34684 -1.23889,1.23888 -1.63127,1.32283 -6.18347,1.32283 h -3.83305 z m 26.93093,-20.84206 c 0,-16.95891 0.0513,-22.43313 0.21547,-22.98873 0.44989,-1.52267 2.39879,-2.94398 4.03679,-2.94398 1.63798,0 3.58689,1.42131 4.03678,2.94398 0.16416,0.5556 0.21546,6.02982 0.21546,22.98873 v 22.25948 h -4.25224 -4.25226 z m -58.04328,11.01662 c 0.59786,-6.59764 5.10594,-11.94267 11.61911,-13.77628 1.1829,-0.33302 1.91791,-0.38367 6.54343,-0.45099 3.45819,-0.0503 5.69015,-0.006 6.63583,0.13252 7.16988,1.04837 12.67554,6.86978 13.33024,14.09475 l 0.11971,1.32093 h -1.41642 -1.41641 l -0.11332,-1.21927 c -0.27838,-2.99523 -1.47378,-5.46633 -3.74125,-7.7338 -1.76004,-1.76004 -3.10509,-2.58062 -5.40953,-3.30017 -1.27893,-0.39934 -1.54503,-0.41492 -7.08708,-0.41492 -5.54206,0 -5.80815,0.0156 -7.08709,0.41492 -2.30443,0.71955 -3.64949,1.54013 -5.40953,3.30017 -2.26747,2.26747 -3.46287,4.73857 -3.74125,7.7338 l -0.11332,1.21927 h -1.41641 -1.41641 z"
       id="path5"
       inkscape:export-filename="cleaning.png"
       inkscape:export-xdpi="35.134102"
       inkscape:export-ydpi="35.134102" /></g></svg>
