<?xml version="1.0" encoding="UTF-8" standalone="no"?>
<svg
   height="32"
   id="svg2"
   version="1.1"
   viewBox="0 0 32 32.000001"
   width="32"
   sodipodi:docname="shake.svg"
   inkscape:version="1.3.2 (091e20ef0f, 2023-11-25, custom)"
   xmlns:inkscape="http://www.inkscape.org/namespaces/inkscape"
   xmlns:sodipodi="http://sodipodi.sourceforge.net/DTD/sodipodi-0.dtd"
   xmlns="http://www.w3.org/2000/svg"
   xmlns:svg="http://www.w3.org/2000/svg">
  <sodipodi:namedview
     id="namedview1"
     pagecolor="#ffffff"
     bordercolor="#000000"
     borderopacity="0.25"
     inkscape:showpageshadow="2"
     inkscape:pageopacity="0.0"
     inkscape:pagecheckerboard="0"
     inkscape:deskcolor="#d1d1d1"
     inkscape:zoom="25.59375"
     inkscape:cx="15.980464"
     inkscape:cy="16"
     inkscape:window-width="1920"
     inkscape:window-height="1006"
     inkscape:window-x="0"
     inkscape:window-y="0"
     inkscape:window-maximized="1"
     inkscape:current-layer="svg2" />
  <defs
     id="defs4" />
  <g
     id="layer1"
     transform="translate(0,-1020.3622)"
     style="fill:#4d4d4d"
     inkscape:export-filename="layer1.png"
     inkscape:export-xdpi="833.09528"
     inkscape:export-ydpi="833.09528">
    <path
       d="m 8.9727576,1029.9151 -0.4473,0.8946 2.1055004,1.0527 2.1191,0 0,-1 -1.8828,0 z"
       id="path12668"
       style="color:#000000;font-style:normal;font-variant:normal;font-weight:normal;font-stretch:normal;font-size:medium;line-height:normal;font-family:sans-serif;text-indent:0;text-align:start;text-decoration:none;text-decoration-line:none;text-decoration-style:solid;text-decoration-color:#000000;letter-spacing:normal;word-spacing:normal;text-transform:none;direction:ltr;writing-mode:lr-tb;baseline-shift:baseline;text-anchor:start;white-space:normal;clip-rule:nonzero;display:inline;overflow:visible;visibility:visible;opacity:1;isolation:auto;mix-blend-mode:normal;color-interpolation:sRGB;color-interpolation-filters:linearRGB;solid-color:#000000;solid-opacity:1;fill:#4d4d4d;fill-opacity:1;fill-rule:evenodd;stroke:none;stroke-width:1.00001407px;stroke-linecap:butt;stroke-linejoin:miter;stroke-miterlimit:4;stroke-dasharray:none;stroke-dashoffset:0;stroke-opacity:1;color-rendering:auto;image-rendering:auto;shape-rendering:auto;text-rendering:auto;enable-background:accumulate" />
    <path
       d="m 14.320358,1029.8624 c -0.8355,0 -1.6166,0.418 -2.0801,1.1133 l 0.01,-0.014 -2.4062004,3.3593 a 0.50083746,0.50082332 0 0 0 0.4082004,0.791 l 2.4648,0 c 0.5013,0 0.9701,-0.251 1.2481,-0.668 l 0.4062,-0.6093 c 0.093,-0.1395 0.2485,-0.2227 0.416,-0.2227 l 0.6622,0 c 0.099,0 0.1943,0.03 0.2754,0.084 l 7.6484,5.0995 c 0.3638,0.2425 0.446,0.7224 0.1836,1.0722 l -0.029,0.041 c -0.2329,0.3105 -0.6515,0.3931 -0.9844,0.1933 l -4.0332,-2.4198 a 0.50111212,0.50109797 0 0 0 -0.5156,0.8594 l 4.0332,2.4198 c 0.7657,0.4595 1.7651,0.2633 2.3008,-0.4512 l 0.029,-0.039 c 0.5989,-0.7984 0.4008,-1.954 -0.4297,-2.5077 l -7.6484,-5.0976 c -0.2473,-0.1655 -0.5365,-0.2519 -0.832,-0.2519 l -0.6622,0 c -0.5012,0 -0.97,0.251 -1.248,0.668 l -0.4042,0.6093 c -0.093,0.1395 -0.2485,0.2227 -0.4161,0.2227 l -1.4921,0 1.8398,-2.5683 a 0.50083746,0.50082332 0 0 0 0.01,-0.014 c 0.2783,-0.4176 0.7462,-0.668 1.248,-0.668 l 3.1484,0 c 0.1391,0 0.2781,0.02 0.4122,0.059 l 2.8574,0.8164 c 0.3609,0.1032 0.7482,0.066 1.084,-0.1016 l 0.6523,-0.3261 a 0.50083746,0.50082332 0 1 0 -0.4492,-0.8946 l -0.6524,0.3262 c -0.1118,0.056 -0.2392,0.068 -0.3593,0.033 l -2.8575,-0.8164 c -0.2231,-0.064 -0.4549,-0.096 -0.6875,-0.096 z"
       id="path12670"
       style="color:#000000;font-style:normal;font-variant:normal;font-weight:normal;font-stretch:normal;font-size:medium;line-height:normal;font-family:sans-serif;text-indent:0;text-align:start;text-decoration:none;text-decoration-line:none;text-decoration-style:solid;text-decoration-color:#000000;letter-spacing:normal;word-spacing:normal;text-transform:none;direction:ltr;writing-mode:lr-tb;baseline-shift:baseline;text-anchor:start;white-space:normal;clip-rule:nonzero;display:inline;overflow:visible;visibility:visible;opacity:1;isolation:auto;mix-blend-mode:normal;color-interpolation:sRGB;color-interpolation-filters:linearRGB;solid-color:#000000;solid-opacity:1;fill:#4d4d4d;fill-opacity:1;fill-rule:evenodd;stroke:none;stroke-width:1.00158894;stroke-linecap:round;stroke-linejoin:round;stroke-miterlimit:4;stroke-dasharray:none;stroke-dashoffset:0;stroke-opacity:1;color-rendering:auto;image-rendering:auto;shape-rendering:auto;text-rendering:auto;enable-background:accumulate" />
    <path
       d="m 25.962958,1035.952 -2.5,1.75 0.5742,0.8203 2.5,-1.75 z"
       id="path12672"
       style="color:#000000;font-style:normal;font-variant:normal;font-weight:normal;font-stretch:normal;font-size:medium;line-height:normal;font-family:sans-serif;text-indent:0;text-align:start;text-decoration:none;text-decoration-line:none;text-decoration-style:solid;text-decoration-color:#000000;letter-spacing:normal;word-spacing:normal;text-transform:none;direction:ltr;writing-mode:lr-tb;baseline-shift:baseline;text-anchor:start;white-space:normal;clip-rule:nonzero;display:inline;overflow:visible;visibility:visible;opacity:1;isolation:auto;mix-blend-mode:normal;color-interpolation:sRGB;color-interpolation-filters:linearRGB;solid-color:#000000;solid-opacity:1;fill:#4d4d4d;fill-opacity:1;fill-rule:evenodd;stroke:none;stroke-width:1.00001407px;stroke-linecap:butt;stroke-linejoin:miter;stroke-miterlimit:4;stroke-dasharray:none;stroke-dashoffset:0;stroke-opacity:1;color-rendering:auto;image-rendering:auto;shape-rendering:auto;text-rendering:auto;enable-background:accumulate" />
    <path
       d="m 5.6035576,1035.7587 -0.707,0.707 2,2 0.707,-0.707 z"
       id="path12674"
       style="color:#000000;font-style:normal;font-variant:normal;font-weight:normal;font-stretch:normal;font-size:medium;line-height:normal;font-family:sans-serif;text-indent:0;text-align:start;text-decoration:none;text-decoration-line:none;text-decoration-style:solid;text-decoration-color:#000000;letter-spacing:normal;word-spacing:normal;text-transform:none;direction:ltr;writing-mode:lr-tb;baseline-shift:baseline;text-anchor:start;white-space:normal;clip-rule:nonzero;display:inline;overflow:visible;visibility:visible;opacity:1;isolation:auto;mix-blend-mode:normal;color-interpolation:sRGB;color-interpolation-filters:linearRGB;solid-color:#000000;solid-opacity:1;fill:#4d4d4d;fill-opacity:1;fill-rule:evenodd;stroke:none;stroke-width:1.00001407px;stroke-linecap:butt;stroke-linejoin:miter;stroke-miterlimit:4;stroke-dasharray:none;stroke-dashoffset:0;stroke-opacity:1;color-rendering:auto;image-rendering:auto;shape-rendering:auto;text-rendering:auto;enable-background:accumulate" />
    <path
       d="m 10.414158,1037.1434 c -0.3727,0.077 -0.7159004,0.2954 -0.9395004,0.6348 l -1.9824,3.0077 c -0.4467,0.678 -0.2544,1.6051 0.4238,2.0507 l 0,0 c 4e-4,3e-4 -5e-4,0 0,0 l 0.051,0.033 c 0.6803,0.4449 1.6074,0.2511 2.0547004,-0.4276 l 1.9824,-3.0078 c 0.4467,-0.6779 0.2546,-1.6051 -0.4238,-2.0507 l -0.053,-0.035 c -0.3402,-0.2226 -0.7425,-0.2845 -1.1152,-0.2071 z m 0.5683,1.045 0.051,0.033 c 0.2307,0.1508 0.2891,0.4329 0.1368,0.6641 l -1.9825004,3.0096 c -0.1523,0.2312 -0.4411,0.2896 -0.6718,0.1387 l -0.051,-0.033 c -0.2306,-0.1509 -0.289,-0.4348 -0.1367,-0.666 l 1.9824004,-3.0097 c 0.1524,-0.2311 0.4414,-0.2895 0.6719,-0.1386 z"
       id="path12676"
       style="color:#000000;font-style:normal;font-variant:normal;font-weight:normal;font-stretch:normal;font-size:medium;line-height:normal;font-family:sans-serif;text-indent:0;text-align:start;text-decoration:none;text-decoration-line:none;text-decoration-style:solid;text-decoration-color:#000000;letter-spacing:normal;word-spacing:normal;text-transform:none;direction:ltr;writing-mode:lr-tb;baseline-shift:baseline;text-anchor:start;white-space:normal;clip-rule:nonzero;display:inline;overflow:visible;visibility:visible;opacity:1;isolation:auto;mix-blend-mode:normal;color-interpolation:sRGB;color-interpolation-filters:linearRGB;solid-color:#000000;solid-opacity:1;fill:#4d4d4d;fill-opacity:1;fill-rule:nonzero;stroke:none;stroke-width:1.00001383;stroke-linecap:round;stroke-linejoin:round;stroke-miterlimit:4;stroke-dasharray:none;stroke-dashoffset:0;stroke-opacity:1;color-rendering:auto;image-rendering:auto;shape-rendering:auto;text-rendering:auto;enable-background:accumulate" />
    <path
       d="m 11.548858,1039.0946 c -0.3768,0.079 -0.724,0.3004 -0.9492,0.6444 l -1.3691004,2.0918 c -0.4504,0.6882 -0.2545,1.6258 0.4336,2.0761 0.6880004,0.4503 1.6258004,0.2544 2.0761004,-0.4336 l 1.3692,-2.0917 c 0.4503,-0.6881 0.2545,-1.6259 -0.4336,-2.0761 -0.3441,-0.2251 -0.7501,-0.2896 -1.127,-0.2109 z m 0.5801,1.0468 c 0.2389,0.1563 0.301,0.4543 0.1445,0.6934 l -1.3691,2.0916 c -0.1565,0.239 -0.4545,0.3009 -0.6934,0.1446 -0.2391004,-0.1565 -0.3010004,-0.4542 -0.1445,-0.6933 l 1.3691,-2.0918 c 0.1565,-0.2391 0.4543,-0.301 0.6934,-0.1445 z"
       id="path12678"
       style="color:#000000;font-style:normal;font-variant:normal;font-weight:normal;font-stretch:normal;font-size:medium;line-height:normal;font-family:sans-serif;text-indent:0;text-align:start;text-decoration:none;text-decoration-line:none;text-decoration-style:solid;text-decoration-color:#000000;letter-spacing:normal;word-spacing:normal;text-transform:none;direction:ltr;writing-mode:lr-tb;baseline-shift:baseline;text-anchor:start;white-space:normal;clip-rule:nonzero;display:inline;overflow:visible;visibility:visible;opacity:1;isolation:auto;mix-blend-mode:normal;color-interpolation:sRGB;color-interpolation-filters:linearRGB;solid-color:#000000;solid-opacity:1;fill:#4d4d4d;fill-opacity:1;fill-rule:nonzero;stroke:none;stroke-width:1.00001407;stroke-linecap:round;stroke-linejoin:round;stroke-miterlimit:4;stroke-dasharray:none;stroke-dashoffset:0;stroke-opacity:1;color-rendering:auto;image-rendering:auto;shape-rendering:auto;text-rendering:auto;enable-background:accumulate" />
    <path
       d="m 12.878958,1040.6453 c -0.3764,0.081 -0.7225,0.3028 -0.9453,0.6484 l -0.8906,1.3828 c -0.4458,0.691 -0.245,1.6272 0.4453,2.0742 0.6903,0.447 1.6285,0.2457 2.0742,-0.4453 l 0.8906,-1.3829 c 0.4458,-0.691 0.2449,-1.6271 -0.4453,-2.0741 -0.3451,-0.2235 -0.7525,-0.284 -1.1289,-0.2031 z m 0.584,1.043 c 0.2397,0.1552 0.3052,0.4532 0.1504,0.6933 l -0.8926,1.3808 c -0.1549,0.2401 -0.4495,0.3038 -0.6895,0.1484 -0.2397,-0.1552 -0.3033,-0.4532 -0.1484,-0.6933 l 0.8906,-1.3808 c 0.1548,-0.24 0.4497,-0.3037 0.6895,-0.1484 z"
       id="path12680"
       style="color:#000000;font-style:normal;font-variant:normal;font-weight:normal;font-stretch:normal;font-size:medium;line-height:normal;font-family:sans-serif;text-indent:0;text-align:start;text-decoration:none;text-decoration-line:none;text-decoration-style:solid;text-decoration-color:#000000;letter-spacing:normal;word-spacing:normal;text-transform:none;direction:ltr;writing-mode:lr-tb;baseline-shift:baseline;text-anchor:start;white-space:normal;clip-rule:nonzero;display:inline;overflow:visible;visibility:visible;opacity:1;isolation:auto;mix-blend-mode:normal;color-interpolation:sRGB;color-interpolation-filters:linearRGB;solid-color:#000000;solid-opacity:1;fill:#4d4d4d;fill-opacity:1;fill-rule:nonzero;stroke:none;stroke-width:1.00001502;stroke-linecap:round;stroke-linejoin:round;stroke-miterlimit:4;stroke-dasharray:none;stroke-dashoffset:0;stroke-opacity:1;color-rendering:auto;image-rendering:auto;shape-rendering:auto;text-rendering:auto;enable-background:accumulate" />
    <path
       d="m 8.0391576,1037.1317 c -0.3764,0.081 -0.7225,0.3029 -0.9454,0.6485 l -0.8906,1.3828 c -0.4456,0.691 -0.243,1.6271 0.4473,2.0741 0.6901,0.4456 1.6269,0.2452 2.0723,-0.4453 l 0.8906,-1.3809 c 0.4457004,-0.691 0.2449,-1.6291 -0.4453,-2.076 -0.3452,-0.2236 -0.7526,-0.284 -1.1289,-0.2032 z m 0.5859,1.043 c 0.2397,0.1552 0.3033,0.4532 0.1484,0.6934 l -0.8906,1.3807 c -0.1549,0.2401 -0.4497,0.3037 -0.6894,0.1484 -0.2398,-0.1552 -0.3033,-0.4532 -0.1485,-0.6933 l 0.8906,-1.3808 c 0.1549,-0.2401 0.4496,-0.3038 0.6895,-0.1484 z"
       id="path12682"
       style="color:#000000;font-style:normal;font-variant:normal;font-weight:normal;font-stretch:normal;font-size:medium;line-height:normal;font-family:sans-serif;text-indent:0;text-align:start;text-decoration:none;text-decoration-line:none;text-decoration-style:solid;text-decoration-color:#000000;letter-spacing:normal;word-spacing:normal;text-transform:none;direction:ltr;writing-mode:lr-tb;baseline-shift:baseline;text-anchor:start;white-space:normal;clip-rule:nonzero;display:inline;overflow:visible;visibility:visible;opacity:1;isolation:auto;mix-blend-mode:normal;color-interpolation:sRGB;color-interpolation-filters:linearRGB;solid-color:#000000;solid-opacity:1;fill:#4d4d4d;fill-opacity:1;fill-rule:nonzero;stroke:none;stroke-width:1.00001502;stroke-linecap:round;stroke-linejoin:round;stroke-miterlimit:4;stroke-dasharray:none;stroke-dashoffset:0;stroke-opacity:1;color-rendering:auto;image-rendering:auto;shape-rendering:auto;text-rendering:auto;enable-background:accumulate" />
    <path
       d="m 17.230558,1039.6082 a 0.50083746,0.50082332 0 0 0 -0.2461,0.9277 l 2.8125,1.7598 c 0.8873,0.5545 2.0649,0.3253 2.6797,-0.5215 l 0.4296,-0.5918 a 0.50083746,0.50082332 0 1 0 -0.8105,-0.5879 l -0.4297,0.5918 c -0.3112,0.4287 -0.8887,0.5405 -1.3379,0.2598 l -2.8125,-1.7578 a 0.50083746,0.50082332 0 0 0 -0.2851,-0.08 z"
       id="path12684"
       style="color:#000000;font-style:normal;font-variant:normal;font-weight:normal;font-stretch:normal;font-size:medium;line-height:normal;font-family:sans-serif;text-indent:0;text-align:start;text-decoration:none;text-decoration-line:none;text-decoration-style:solid;text-decoration-color:#000000;letter-spacing:normal;word-spacing:normal;text-transform:none;direction:ltr;writing-mode:lr-tb;baseline-shift:baseline;text-anchor:start;white-space:normal;clip-rule:nonzero;display:inline;overflow:visible;visibility:visible;opacity:1;isolation:auto;mix-blend-mode:normal;color-interpolation:sRGB;color-interpolation-filters:linearRGB;solid-color:#000000;solid-opacity:1;fill:#4d4d4d;fill-opacity:1;fill-rule:evenodd;stroke:none;stroke-width:1.00158894;stroke-linecap:round;stroke-linejoin:round;stroke-miterlimit:4;stroke-dasharray:none;stroke-dashoffset:0;stroke-opacity:1;color-rendering:auto;image-rendering:auto;shape-rendering:auto;text-rendering:auto;enable-background:accumulate" />
    <path
       d="m 16.210958,1041.6082 a 0.50083746,0.50082332 0 0 0 -0.209,0.9394 l 2.2832,1.3046 c 0.91,0.52 2.0758,0.27 2.6915,-0.5781 l 0.4433,-0.6112 a 0.50083746,0.50082332 0 1 0 -0.8105,-0.5879 l -0.4434,0.6094 c -0.3203,0.4411 -0.9094,0.5692 -1.3828,0.2987 l -2.2852,-1.3066 a 0.50083746,0.50082332 0 0 0 -0.2871,-0.068 z"
       id="path12686"
       style="color:#000000;font-style:normal;font-variant:normal;font-weight:normal;font-stretch:normal;font-size:medium;line-height:normal;font-family:sans-serif;text-indent:0;text-align:start;text-decoration:none;text-decoration-line:none;text-decoration-style:solid;text-decoration-color:#000000;letter-spacing:normal;word-spacing:normal;text-transform:none;direction:ltr;writing-mode:lr-tb;baseline-shift:baseline;text-anchor:start;white-space:normal;clip-rule:nonzero;display:inline;overflow:visible;visibility:visible;opacity:1;isolation:auto;mix-blend-mode:normal;color-interpolation:sRGB;color-interpolation-filters:linearRGB;solid-color:#000000;solid-opacity:1;fill:#4d4d4d;fill-opacity:1;fill-rule:evenodd;stroke:none;stroke-width:1.00158894;stroke-linecap:round;stroke-linejoin:round;stroke-miterlimit:4;stroke-dasharray:none;stroke-dashoffset:0;stroke-opacity:1;color-rendering:auto;image-rendering:auto;shape-rendering:auto;text-rendering:auto;enable-background:accumulate" />
    <path
       d="m 13.927758,1043.1667 -0.3574,0.9355 3,1.1465 c 0.7582,0.2897 1.624,0.01 2.0684,-0.6699 l 0.4375,-0.6699 -0.8379,-0.5489 -0.4395,0.67 c -0.1896,0.2898 -0.5475,0.4068 -0.8711,0.2832 z"
       id="path12688"
       style="color:#000000;font-style:normal;font-variant:normal;font-weight:normal;font-stretch:normal;font-size:medium;line-height:normal;font-family:sans-serif;text-indent:0;text-align:start;text-decoration:none;text-decoration-line:none;text-decoration-style:solid;text-decoration-color:#000000;letter-spacing:normal;word-spacing:normal;text-transform:none;direction:ltr;writing-mode:lr-tb;baseline-shift:baseline;text-anchor:start;white-space:normal;clip-rule:nonzero;display:inline;overflow:visible;visibility:visible;opacity:1;isolation:auto;mix-blend-mode:normal;color-interpolation:sRGB;color-interpolation-filters:linearRGB;solid-color:#000000;solid-opacity:1;fill:#4d4d4d;fill-opacity:1;fill-rule:evenodd;stroke:none;stroke-width:1.00158894;stroke-linecap:butt;stroke-linejoin:round;stroke-miterlimit:4;stroke-dasharray:none;stroke-dashoffset:0;stroke-opacity:1;color-rendering:auto;image-rendering:auto;shape-rendering:auto;text-rendering:auto;enable-background:accumulate" />
    <path
       d="m 6.7266576,1027.3625 a 0.50005,0.50003588 0 0 0 -0.3985,0.2324 l -5.25,8.2497 a 0.50005,0.50003588 0 0 0 0.1817,0.707 l 2.7539,1.5 a 0.50005,0.50003588 0 0 0 0.6582,-0.166 l 5.2441,-8.0584 a 0.50005,0.50003588 0 0 0 -0.1562,-0.6972 l -2.7481,-1.6933 a 0.50005,0.50003588 0 0 0 -0.2851,-0.074 z m 0.1796,1.1836 1.8926,1.1659 -4.7129,7.24 -1.8769,-1.0234 z"
       id="path12690"
       style="color:#000000;font-style:normal;font-variant:normal;font-weight:normal;font-stretch:normal;font-size:medium;line-height:normal;font-family:sans-serif;text-indent:0;text-align:start;text-decoration:none;text-decoration-line:none;text-decoration-style:solid;text-decoration-color:#000000;letter-spacing:normal;word-spacing:normal;text-transform:none;direction:ltr;writing-mode:lr-tb;baseline-shift:baseline;text-anchor:start;white-space:normal;clip-rule:nonzero;display:inline;overflow:visible;visibility:visible;opacity:1;isolation:auto;mix-blend-mode:normal;color-interpolation:sRGB;color-interpolation-filters:linearRGB;solid-color:#000000;solid-opacity:1;fill:#4d4d4d;fill-opacity:1;fill-rule:evenodd;stroke:none;stroke-width:1.00001407px;stroke-linecap:round;stroke-linejoin:round;stroke-miterlimit:4;stroke-dasharray:none;stroke-dashoffset:0;stroke-opacity:1;color-rendering:auto;image-rendering:auto;shape-rendering:auto;text-rendering:auto;enable-background:accumulate" />
    <path
       d="m 24.751958,1027.3625 a 0.50005,0.50003588 0 0 0 -0.2636,0.074 l -2.7481,1.6933 a 0.50005,0.50003588 0 0 0 -0.1562,0.6972 l 5.2441,8.0584 a 0.50005,0.50003588 0 0 0 0.6582,0.166 l 2.752,-1.5 a 0.50005,0.50003588 0 0 0 0.1836,-0.707 l -5.25,-8.2497 a 0.50005,0.50003588 0 0 0 -0.42,-0.2324 z m -0.1601,1.1836 4.6992,7.3825 -1.8769,1.0234 -4.7129,-7.24 z"
       id="path12692"
       style="color:#000000;font-style:normal;font-variant:normal;font-weight:normal;font-stretch:normal;font-size:medium;line-height:normal;font-family:sans-serif;text-indent:0;text-align:start;text-decoration:none;text-decoration-line:none;text-decoration-style:solid;text-decoration-color:#000000;letter-spacing:normal;word-spacing:normal;text-transform:none;direction:ltr;writing-mode:lr-tb;baseline-shift:baseline;text-anchor:start;white-space:normal;clip-rule:nonzero;display:inline;overflow:visible;visibility:visible;opacity:1;isolation:auto;mix-blend-mode:normal;color-interpolation:sRGB;color-interpolation-filters:linearRGB;solid-color:#000000;solid-opacity:1;fill:#4d4d4d;fill-opacity:1;fill-rule:evenodd;stroke:none;stroke-width:1.00001407px;stroke-linecap:round;stroke-linejoin:round;stroke-miterlimit:4;stroke-dasharray:none;stroke-dashoffset:0;stroke-opacity:1;color-rendering:auto;image-rendering:auto;shape-rendering:auto;text-rendering:auto;enable-background:accumulate" />
  </g>
</svg>
